<svg width="200" height="60" viewBox="0 0 200 60" xmlns="http://www.w3.org/2000/svg">
  <defs>
    <linearGradient id="logoGradient" x1="0%" y1="0%" x2="100%" y2="100%">
      <stop offset="0%" style="stop-color:#10B981;stop-opacity:1" />
      <stop offset="100%" style="stop-color:#059669;stop-opacity:1" />
    </linearGradient>
    <filter id="shadow" x="-20%" y="-20%" width="140%" height="140%">
      <feDropShadow dx="0" dy="2" stdDeviation="3" flood-color="#000000" flood-opacity="0.15"/>
    </filter>
  </defs>
  
  <!-- Background circle for icon -->
  <circle cx="30" cy="30" r="25" fill="url(#logoGradient)" filter="url(#shadow)"/>
  
  <!-- Sketch-style code lines -->
  <g transform="translate(30, 30)">
    <!-- Left bracket (sketchy) -->
    <path d="M-15 -8 Q-12 -8 -10 -6 Q-8 -4 -8 -2 Q-8 0 -8 2 Q-8 4 -10 6 Q-12 8 -15 8" 
          stroke="white" stroke-width="2.5" fill="none" stroke-linecap="round" stroke-linejoin="round"/>
    
    <!-- Right bracket (sketchy) -->
    <path d="M15 -8 Q12 -8 10 -6 Q8 -4 8 -2 Q8 0 8 2 Q8 4 10 6 Q12 8 15 8" 
          stroke="white" stroke-width="2.5" fill="none" stroke-linecap="round" stroke-linejoin="round"/>
    
    <!-- Sketchy code lines with varying lengths and slight curves -->
    <path d="M-8 -6 Q-4 -6 -2 -6 Q0 -6 4 -6 Q6 -6 8 -6" 
          stroke="white" stroke-width="2" fill="none" stroke-linecap="round"/>
    
    <path d="M-8 -2 Q-6 -2 -2 -2 Q0 -2 2 -2 Q4 -2 6 -2" 
          stroke="white" stroke-width="2" fill="none" stroke-linecap="round"/>
    
    <path d="M-8 2 Q-4 2 -2 2 Q0 2 4 2 Q6 2 8 2" 
          stroke="white" stroke-width="2" fill="none" stroke-linecap="round"/>
    
    <path d="M-8 6 Q-6 6 -2 6 Q0 6 2 6 Q4 6 6 6" 
          stroke="white" stroke-width="2" fill="none" stroke-linecap="round"/>
    
    <!-- Small sketchy dots representing code elements -->
    <circle cx="-4" cy="-4" r="0.8" fill="white"/>
    <circle cx="2" cy="0" r="0.8" fill="white"/>
    <circle cx="-2" cy="4" r="0.8" fill="white"/>
  </g>
  

  

</svg> 